<?xml version="1.0" standalone="no"?>
<!DOCTYPE svg PUBLIC "-//W3C//DTD SVG 20010904//EN"
 "http://www.w3.org/TR/2001/REC-SVG-20010904/DTD/svg10.dtd">
<svg version="1.0" xmlns="http://www.w3.org/2000/svg"
 width="512.000000pt" height="512.000000pt" viewBox="0 0 512.000000 512.000000"
 preserveAspectRatio="xMidYMid meet">
<metadata>
Created by potrace 1.11, written by Peter Selinger 2001-2013
</metadata>
<g transform="translate(0.000000,512.000000) scale(0.100000,-0.100000)"
fill="#000000" stroke="none">
<path d="M2327 5110 c-788 -83 -1466 -488 -1899 -1135 -202 -302 -341 -665
-400 -1040 -31 -201 -31 -549 0 -750 113 -725 512 -1352 1117 -1757 302 -202
665 -341 1040 -400 201 -31 549 -31 750 0 280 44 512 118 764 243 749 372
1262 1077 1393 1914 31 201 31 549 0 750 -113 725 -512 1352 -1117 1757 -301
201 -671 344 -1038 399 -153 23 -474 33 -610 19z m660 -2292 c-3 -1698 3
-1566 -78 -1735 -96 -201 -263 -319 -499 -354 -108 -15 -286 -7 -365 18 l-60
19 -3 142 c-1 78 -1 142 0 142 2 0 38 -7 81 -15 102 -19 277 -19 341 0 128 39
209 136 242 290 11 48 13 363 14 1526 0 806 3 1469 7 1472 3 4 78 7 165 7
l158 0 -3 -1512z"/>
</g>
</svg>
